<svg id="Layer_1" data-name="Layer 1" xmlns="http://www.w3.org/2000/svg" viewBox="0 0 1000 1000"><defs><style>.cls-1{fill:#742f8a;}</style></defs><title>IEEE WIE GS - Full Color</title><path class="cls-1" d="M725.46,546.4V667.66c0,30.8,0,32.76,22.28,35.39v9.49H674.33v-9.82c22.3-2.62,22.3-4.91,22.3-35.39V597.19c-1-17.36,3.16-15.72-18.36-8.87"/><path class="cls-1" d="M796.9,622.43c0,32.12,9.5,79.63,50.47,79.63,22,0,41-12.12,53.73-29.82l5.58,5.24c-13.76,22.62-36.7,38.67-63.57,38.67-45.89,0-79.31-37.35-79.31-82.25,0-41.95,29.17-85.2,75-85.2,41,0,69.15,35.06,69.15,73.73Zm78-12.46c2-22.6-7.86-50.46-36.38-50.46-27.85,0-39.33,28.18-40,50.46Z"/><path class="cls-1" d="M319.45,391.79c-38.87,30.74-67.8,77.75-72.32,114.82-3.61,30.73,6.32,56,38.87,57.85,34.35,1.8,70.51-28,95.82-55.15,19.88-21.69,38-54.23,39.77-73.22.91-9,0-16.27-4.52-23.51-1.81-3.61-3.62-4.51-2.72-6.32s4.53,0,7.24,2.71,11.75,13.56,9.94,34.35c-.9,24.41-17.18,53.34-37.06,75.94-23.5,25.31-69.6,56-110.27,53.33s-60.57-28.92-56-67.79c4.51-36.16,35.25-83.17,83.17-119.33,43.38-32.54,97.62-55.14,144.62-55.14,51.55,0,109.4,19.89,100.36,94.91-5.42,55.15-102.17,176.28-161.83,235.94v.9c28.93-19.89,58.75-42.49,103-75,38-27.11,83.19-60.56,112.11-83.15,10.85-30.74,23.51-63.29,39.78-89.51,21.69-34.35,45.19-51.52,64.17-51.52,16.27,0,28,14.46,20.79,36.16-11.74,37.06-57.84,68.7-82.25,92.21-13.57,56-30.74,132-59.66,170.84V663c30.73-29.84,108.46-94.92,162.7-143.73,86.78-78.65,118.42-137.41,123.85-169,1.81-12.66.9-24.42-5.43-30.74-6.32-5.42-12.66-3.62-11.75-6.33.9-1.8,6.33-2.71,9-2.71,26.22,0,38.86,20.79,37.06,44.29-4.52,37.06-43.39,94-143.72,176.28-71.42,58.76-141.92,117.51-200.67,173.55-5.43,5.43-14.47,13.56-25.31,13.56-9.05,0-9.05-8.13-3.62-15.36,30.73-41.58,49.71-131.08,70.5-182.6v-.9c-17.18,14.46-72.31,56-116.63,88.58-38,27.12-118.41,85.88-151.86,107.57-5.42,3.62-12.66,9-19,9-10.85,0-13.56-7.23-5.43-17.17,34.36-36.16,75-81.36,114.81-137.4s75-116.61,82.27-162.72c7.24-47-18.09-68.7-55.16-68.7C408.94,338.46,357.41,362.87,319.45,391.79Zm404.08,8.14c6.32-17.17,0-28-11.75-28-13.57,0-27.12,19.88-32.55,32.54-9.94,20.79-19,50.63-24.39,70.51C672,458.69,711.78,429.76,723.53,399.93Z"/><path class="cls-1" d="M723.8,524.41a16.28,16.28,0,1,1-16.27-16.28A16.28,16.28,0,0,1,723.8,524.41Z"/><path class="cls-1" d="M86.56,629.91c1.53,8.76,2.35,9.58,4.42,9.73s6.11.23,18.77-.71l21.64-1.61c6.49-.49,11.89-1.08,15.54-1.65,2.7-.4,3.07-1.22,3.28-2.71.15-1,.23-4.25.39-5.15.16-.7.24-1.1.56-1.13a10.88,10.88,0,0,1,3.09.56c.37,8,.56,12,.94,15.6a95.29,95.29,0,0,0,1.15,9.56,1.22,1.22,0,0,1-.78,1.24,7.45,7.45,0,0,1-2.67.6c-.74-6.94-1.44-9.06-4.39-9.23-1.74,0-5.56-.18-17.68.72L105,647.66c-14.17,1.06-15.24,1.24-15.76,4.62,0,1.08-.13,2.57,0,5.33a.6.6,0,0,1-.61.63,4.13,4.13,0,0,1-1.66-.37c-.78-.34-1-.42-1.14-.7a18.51,18.51,0,0,1-.3-2.54c-.08-1.17-.22-4.52-.6-9.61s-1.09-11.74-1.17-12.72c-.09-1.28,0-1.38.33-1.5Z"/><path class="cls-1" d="M115.93,595c.06-4.42,0-7.76-.17-10.22-.35-5.9-.77-6.4-7.15-7.78a7.73,7.73,0,0,1-.39-3.15c3.15.25,8.12.91,11.49,1,3.69,0,6.73-.3,9.88-.54a8.93,8.93,0,0,1,.29,2.26c.1.5-.23.69-.66.88-1.2.37-3,.84-4.25,1.11-2.94.55-3.94,1.71-4.32,5.63-.25,2.17-.3,5.41-.38,10.42a42.12,42.12,0,0,0,.12,6.48,1.49,1.49,0,0,0,.64,1c.64.3,4.43.94,13.33,1.08,7.92.12,10.85.17,12.6-.79,2.08-1.34,2.67-4.77,2.8-12.83.17-11.49-.94-17-12.39-20.23a9.76,9.76,0,0,1,.14-2.36c.23-.29.34-.29.88-.28a55.39,55.39,0,0,1,15,3.28c.64.5.86.79.85,1.29,0,.68,0,1.37-.18,4.61-.16,3-.37,9.83-.49,18-.12,7.86.19,15.62.4,23.49a10.13,10.13,0,0,1-3.26.14.56.56,0,0,1-.43-.39c-.8-4.54-1.55-4.94-3.18-5.06s-8.55-.82-19.62-1l-18.77-.28c-14.42-.22-19.21.3-19.86.39a1.43,1.43,0,0,0-1.43,1.25c-.45,1-.8,2.84-1.49,5.19-.11.09-.11.09-.43.09l-2.5-.24c-.43,0-.54,0-.53-.5l0-3.43c0-3,.32-6.78.52-12.77l.15-9.53c.09-6-.34-13.17-.38-18.09a3.86,3.86,0,0,1,.58-2.34c.66-.88.66-.88,2.61-.45a97.43,97.43,0,0,0,13.88,1.09c0,2.56-.37,2.94-1,3-7.83,1.26-11.75,1.88-11.86,9.55l-.11,6.78c-.09,5.79.08,9,.39,10.12.42,1.29,1.5,1.5,4,1.54,7.6.12,15.19.13,22.79.15,1,0,1.74-.57,1.75-1.26Z"/><path class="cls-1" d="M120.13,533.1c.57-4.39.89-7.72,1-10.18.32-5.9,0-6.44-6.23-8.53a7.69,7.69,0,0,1,0-3.17c3.1.59,8,1.82,11.31,2.25,3.67.37,6.72.47,9.88.58a8.83,8.83,0,0,1,0,2.29c0,.49-.3.65-.76.79-1.23.23-3,.5-4.34.63-3,.21-4.1,1.25-4.93,5.1-.49,2.12-.91,5.33-1.55,10.31a41.35,41.35,0,0,0-.61,6.45,1.47,1.47,0,0,0,.51,1.07c.62.37,4.3,1.44,13.13,2.58,7.85,1,10.76,1.39,12.6.64,2.22-1.11,3.2-4.44,4.23-12.44,1.48-11.39,1-17-10-21.5a10.18,10.18,0,0,1,.41-2.33c.26-.26.36-.24.9-.17a55.17,55.17,0,0,1,14.57,4.95c.58.57.76.89.69,1.37-.08.69-.17,1.37-.7,4.57-.48,2.91-1.47,9.72-2.51,17.8-1,7.8-1.57,15.55-2.26,23.39a10.15,10.15,0,0,1-3.25-.22.56.56,0,0,1-.38-.45c-.28-4.59-1-5.08-2.59-5.38s-8.41-1.78-19.38-3.19l-18.62-2.41C96.91,546.05,92.1,546,91.44,546a1.44,1.44,0,0,0-1.56,1.1c-.56.91-1.12,2.72-2.07,5-.12.07-.12.07-.44,0l-2.45-.51c-.43,0-.54-.07-.47-.56l.44-3.4c.39-3,1.08-6.7,2-12.63l1.22-9.45c.76-6,1.14-13.13,1.67-18a3.8,3.8,0,0,1,.84-2.27c.75-.8.75-.8,2.64-.16a95.48,95.48,0,0,0,13.66,2.66c-.33,2.53-.7,2.88-1.36,2.89-7.92.36-11.88.55-12.86,8.16l-.87,6.71c-.75,5.75-1,9-.76,10.11.27,1.32,1.32,1.65,3.79,2,7.53,1,15.08,1.85,22.63,2.73a1.57,1.57,0,0,0,1.88-1Z"/><path class="cls-1" d="M131.36,472.11c1.07-4.29,1.77-7.56,2.15-10,1-5.82.7-6.4-5.2-9.19a7.54,7.54,0,0,1,.34-3.15c3,1,7.7,2.72,11,3.54,3.6.79,6.62,1.24,9.74,1.71a8.13,8.13,0,0,1-.23,2.27c0,.5-.37.62-.84.7-1.25.1-3.06.16-4.39.12-3-.13-4.22.78-5.48,4.51-.74,2.05-1.52,5.2-2.73,10.06s-1.32,5.74-1.35,6.34a1.47,1.47,0,0,0,.39,1.11c.56.45,4.1,1.94,12.74,4.09,7.69,1.91,10.53,2.61,12.45,2.08,2.33-.84,3.69-4.05,5.63-11.86,2.78-11.16,2.95-16.79-7.48-22.52a9.34,9.34,0,0,1,.68-2.26c.28-.23.39-.21.91-.08a55.29,55.29,0,0,1,13.9,6.6c.51.63.65,1,.53,1.45-.16.66-.33,1.33-1.22,4.45-.82,2.84-2.58,9.48-4.54,17.4-1.9,7.63-3.35,15.27-4.94,23a9.8,9.8,0,0,1-3.2-.59.57.57,0,0,1-.33-.49c.25-4.59-.39-5.16-2-5.64S149.76,493,139,490.31l-18.21-4.53c-14-3.48-18.78-4.06-19.44-4.12a1.43,1.43,0,0,0-1.67.89c-.66.85-1.43,2.59-2.63,4.71-.13.08-.13.08-.44,0l-2.38-.8c-.42-.1-.53-.13-.41-.6l.84-3.34c.73-3,1.84-6.52,3.39-12.31l2.3-9.25c1.45-5.82,2.66-12.91,3.74-17.7a3.87,3.87,0,0,1,1.09-2.16c.84-.7.84-.7,2.64.15a97.81,97.81,0,0,0,13.27,4.22c-.62,2.47-1,2.77-1.68,2.71-7.92-.55-11.87-.82-13.72,6.61l-1.64,6.58c-1.4,5.63-2,8.82-1.91,9.95.11,1.34,1.12,1.8,3.53,2.4,7.38,1.83,14.77,3.57,22.16,5.31a1.57,1.57,0,0,0,2-.82Z"/><path class="cls-1" d="M179.12,399.93c-8.85-.92-24.11-2.78-47.27-4.77-7.55-.61-8.12-.67-10.8,3.6-.36.48-.5.52-.89.33a10.22,10.22,0,0,1-1.42-1.79,1.45,1.45,0,0,1,0-1.52c.81-1.68,2.9-5.47,3.8-7.32,1.51-3.1,2.82-6.28,4.37-9.46.21-.44,1.75-.13,2.82.39.39.19.64.42.52.91-1.32,3.72-1.64,5.1-.28,5.54a27.12,27.12,0,0,0,3.94.83c16.66,2.21,39.64,4.33,48.9,4.9.57.06,1.07-.46.66-.87-5.09-5.65-20.24-21.12-26-26.88a3.45,3.45,0,0,0-2.38-1.05c-5.85-.87-9.72-1.34-12.12-1.63-2.63-.3-3.18.09-5.25,4.11a.78.78,0,0,1-.89.33c-1.92-1.27-2.34-2.13-2.05-2.74,1-2.13,2.74-5.13,4.33-8.39,2.15-4.42,3.1-7.12,3.75-8.45.6-.47,3.44.37,3.38,1-1.69,5-1.66,5.64,1.36,6.13,12,2,36.82,4.92,51.25,6.27.48,0,.55-.39.1-.94-6.79-7.13-29.45-30.73-37-36.27-1.82-1.21-2.7-.66-3.31.36-.84,1.23-1.66,2.9-2.45,4-.19.13-.43.12-.87-.21-1.77-1.07-2.37-1.59-2-2.29.43-.88,3.3-6,4.33-8.16,1.38-2.83,2.6-5.84,3-6.54.51-1.06.92-1.41,1.55-1.21l2.28.77a.47.47,0,0,1,.22.55c-2.34,4.55-1.74,5.06,6.38,14.14,4.8,5.51,21.12,22.31,33.62,35.05,1.41,1.56,4.46,5.46,7.12,8.17a1.81,1.81,0,0,1,.39,1.94c-.52,1.06-1.42,1.17-3,.95-2-.33-4.79-.81-10.11-1.54-6.18-.94-22.23-3.17-35.37-4.44,6.8,7.36,14.36,15.63,24.3,25.93,2.51,2.53,5.85,6.34,8.45,8.93.4.41.51.68.48,1a3.44,3.44,0,0,1-.43,1.87c-.21.44-.68.65-1.54.45C193.24,401.67,188,400.85,179.12,399.93Z"/><path class="cls-1" d="M196.52,307.88c3.78-5.75,16-11.26,28.39-3.1,9.25,6.07,10.6,14.48,10.58,16.1.07,5.23-.92,10.1-3.24,13.63-2,3-8.14,8.05-14.82,8.14a26.33,26.33,0,0,1-13.87-4.17,24.56,24.56,0,0,1-8.73-10.43,20.48,20.48,0,0,1-1.55-8.9c.19-3.87,1.57-8.72,3.18-11.19Zm1,6a6.82,6.82,0,0,0-.66,5.56c1,3.83,4.11,7.17,10,11a21.89,21.89,0,0,0,14.61,3.83c5.19-.59,7.9-2.93,9.24-5a7,7,0,0,0,1-5.1c-.72-3.05-2.85-6.92-8.38-10.55s-12.31-6-18-4.78a12.41,12.41,0,0,0-7.76,4.89Z"/><path class="cls-1" d="M274.7,277.57c-6.65,7.62-9.49,10.88-11.67,14.2-.19.22-.19.22-.43,0a14.21,14.21,0,0,1-1.49-1.43c-.17-.13-.43-.5-.38-.72,1.62-3.67,1.55-4.25.47-5.32-1.95-2.23-6.17-6.3-14.43-13.5-3.43-3-4.77-3.77-6.56-4a8.87,8.87,0,0,0-6.67,3.18c-1.48,1.71-2.63,5-2.93,9.31a2.94,2.94,0,0,0,.86,2.32c1.49,1.42,6.33,5.78,10.17,9.13,9.08,7.91,9.53,8.05,12.78,5.15.54-.45.77-.38,1-.17a17.85,17.85,0,0,1,1.77,1.94c-.58.66-4.18,4.95-5.41,6.36a75.54,75.54,0,0,0-4.74,6.43c-.27.15-1.73-1-2.56-1.85a22.32,22.32,0,0,0,1-2.93c.27-.8.14-1.32-.7-2.17-.85-1-3.19-3.44-9.73-9.14-6.05-5.28-8-6.7-9-7.48-1.44-1-1.72-.85-3.33.35-1.14,1-1.58,1-2,.91s-1.7-.7-1.73-1a118.09,118.09,0,0,1,.8-11.81,2.57,2.57,0,0,1,.67-1.76c.39-.45.75-.53,1.32,0l6,5.36c.4-2.78.82-9.2,1.7-12.85a8.2,8.2,0,0,1,1.61-3.17c3.49-4,7.8-4.15,13-3.3,1-6.28,1.37-8.84,2.23-11.47a13.57,13.57,0,0,1,2.75-5.3,9.62,9.62,0,0,1,6-2.88c2.26-.12,5.2,0,12.83,6.24,4.24,3.57,8.08,6.92,11.44,9.84,3.1,2.71,4.15,3.5,4.75,3.63,1.21.27,2.29-.48,5.57-3.09.2-.23.49-.23.82.06s1.72,2.15,1.52,2.37l-4.38,5a84.42,84.42,0,0,0-5.54,7.17.55.55,0,0,1-.63.22,12.57,12.57,0,0,1-1.75-1.13c-.16-.14-.33-.29-.21-.58a3.54,3.54,0,0,0-.27-3.49c-2.82-3.37-8.71-8.5-10.5-10.07-6.87-6-10-7.32-12.41-7.57-2.48-.46-4.26.59-6.39,3-1.81,2.08-2.83,5.23-3.33,8.44-.11,1,.08,1.24,1,2,4.67,4.2,15.61,13.62,18.89,16,1.36.92,1.57.85,5.37-2.36.2-.22.57-.16,1,.2Z"/><path class="cls-1" d="M282.42,210.21a12,12,0,0,1,8.7-2.43,17.79,17.79,0,0,1,7.67,2.79c.53-.74,1.57-2.38,2.08-2.25.36,0,.58.21.79.61.42.93,1.19,2.85.67,3.6-3.88,5.7-11.63,16.09-13.88,19.94-.29.4-.09.94.77,1.92,7.3,7.88,14.14,7.8,19,3.53,3.41-3,4.93-7,5.3-11.7.08-.66,1-1.43,1.11-1.12,1.64,2,2,2.72,2,3.6a33.48,33.48,0,0,1-4.45,13.41,11.2,11.2,0,0,1-2.38,2.81,16.44,16.44,0,0,1-13.39,3.64,21.66,21.66,0,0,1-12.33-7.36,26.56,26.56,0,0,1-6-22.55,15.64,15.64,0,0,1,4.29-8.37Zm11.32,6.23c-2-2.29-8.1-3.58-11.2-.86a4.11,4.11,0,0,0-1.13,2.43c-.71,3.51,1.6,8.69,4.75,12,2.55-4,5.38-7.59,7.91-11.4a1.49,1.49,0,0,0-.26-2.08Z"/><path class="cls-1" d="M325,227.34c1.81-2.72,2.34-4,.91-6.59a126.66,126.66,0,0,0-8-12.66c-2.43-3.47-4.82-6.55-6-8.1-.63-.88-1.2-1-5.59.59-.62-.22-.67.07-1.34-1.58-.18-.26-.06-.61.29-1.13,2.16-4.28,4.21-8.89,4.37-9.53a1.83,1.83,0,0,1,.7-.89.91.91,0,0,1,1.23.06c1.14,1.46,2.4,3.09,3.46,4.6.31.45.64.75,1,.53a79,79,0,0,1,4.29-9,12.37,12.37,0,0,1,3.64-4.4,9.36,9.36,0,0,1,6.84-1.87c3.34.31,6.71,2.72,9.7,6.33,1.47,1.75,3,3.88,5.63,7.7,4.54,6.5,7.29,10.27,8.73,12.31.55.8.69.83.93.67.73-.51,2.88-2.41,4-3.34.24-.17.65.07,1,.6a18.34,18.34,0,0,1,1.17,2.36c.15.56,0,.67-.33.9-7.17,5-9.34,7.05-12.39,9.19-.49.34-.89.62-1.22.32L346.3,213c1.72-2.52,2.1-3.85.69-6.56-1.47-2.95-3.68-6.3-8.1-12.61-3.42-4.9-5.24-7.33-8.65-8.25a8.09,8.09,0,0,0-6.94,1.54c-1.94,1.35-4.13,4.74-5.09,7.13a3.1,3.1,0,0,0,.61,2.75c2,3.24,10.9,15.94,14.26,20.75.81,1.16,1.09,1.22,5.77-1,.55-.24.76-.12.92.29l.89,2.29-6.85,4.79c-3.22,2.25-5.48,4.5-7.09,5.62-.16.11-.37,0-.62-.36Z"/><path class="cls-1" d="M366,125.39c2.28-1.15,4.84.24,6,2.57,1.65,3.3.51,6.29-1.77,7.43-2.11,1.06-4.79.1-6.1-2.53-1.7-3.39-.16-6.47,1.77-7.43Zm9.85,32.43c-.34-.44-1-.47-5.52.82-.4.08-.59-.08-.57-.69-.26-2-.26-2.29.12-2.61,2.8-3,5.15-6,8.29-9.35a.71.71,0,0,1,.39-.32c.18-.09.27.1.56.68C382,153.13,388.42,167,391,172.08s3.35,6.69,4,7.81c.85,1.27,1.31,1.77,2.15,1.23,2.62-1.55,3.32-1.9,3.59-2s1.08.18,1.14.52l1,2.65c.2.63,0,.72-.41.93-2.55,1.28-5.11,2.31-7.92,3.72a73.21,73.21,0,0,0-7.36,4.4c-.44.23-.66.21-.94-.13a10.87,10.87,0,0,1-1.29-2.14c-.2-.39-.07-.58.2-.7,3-2,3.52-2.62,2.69-5.6A116.31,116.31,0,0,0,381.21,168Z"/><path class="cls-1" d="M408,177.28c2.41-2.21,3.23-3.34,2.45-6.18a127.39,127.39,0,0,0-4.76-14.21c-1.52-3.95-3.11-7.52-3.91-9.3-.39-1-.91-1.28-5.56-.77-.56-.36-.66-.08-.93-1.85-.11-.3.08-.61.55-1,3.13-3.64,6.22-7.63,6.52-8.21a1.82,1.82,0,0,1,.89-.69.92.92,0,0,1,1.19.35c.76,1.69,1.59,3.57,2.26,5.29.19.51.44.88.81.74a78.58,78.58,0,0,1,6.3-7.67,12.46,12.46,0,0,1,4.59-3.41,9.39,9.39,0,0,1,7.09-.18c3.17,1.11,5.85,4.25,7.9,8.46,1,2.06,1.94,4.49,3.63,8.84,2.85,7.38,4.63,11.7,5.52,14,.36.91.49,1,.77.87.82-.32,3.36-1.65,4.7-2.28.27-.11.61.22.84.83a18,18,0,0,1,.58,2.57c0,.58-.17.65-.54.8-8.15,3.15-10.75,4.61-14.23,6-.55.21-1,.39-1.26,0l-1.24-1.85c2.27-2,3-3.24,2.24-6.21-.72-3.22-2.08-7-4.85-14.18-2.15-5.57-3.35-8.37-6.43-10.08a8.11,8.11,0,0,0-7.12-.16c-2.19.86-5.13,3.61-6.64,5.71a3.14,3.14,0,0,0-.06,2.82c1.18,3.61,6.77,18.08,8.88,23.54.52,1.33.78,1.45,5.85.42.59-.11.77.06.83.5l.31,2.44-7.8,3c-3.66,1.42-6.39,3.05-8.23,3.76-.18.08-.35-.09-.51-.5Z"/><path class="cls-1" d="M493.22,114.62c4.35-.79,7.64-1.48,10-2.14,5.72-1.47,6.13-2,6.25-8.51a7.74,7.74,0,0,1,3-1c.37,3.13.68,8.15,1.27,11.45.75,3.62,1.58,6.56,2.43,9.6a8.76,8.76,0,0,1-2.17.72c-.46.19-.72-.09-1-.48-.61-1.11-1.4-2.73-1.91-4-1.1-2.78-2.44-3.53-6.36-3.15-2.17.17-5.38.74-10.32,1.63s-5.78,1.15-6.34,1.37a1.43,1.43,0,0,0-.85.81c-.17.69-.08,4.53,1.49,13.29,1.41,7.79,1.93,10.68,3.2,12.21,1.72,1.78,5.2,1.71,13.16.28,11.31-2,16.51-4.18,17.47-16a10,10,0,0,1,2.34-.31c.33.17.35.27.44.81a55,55,0,0,1-.32,15.38c-.37.72-.62,1-1.1,1.08-.68.12-1.36.24-4.57.71-2.92.42-9.7,1.53-17.73,3-7.76,1.4-15.32,3.2-23,4.92a10.44,10.44,0,0,1-.77-3.18.55.55,0,0,1,.31-.49c4.29-1.65,4.55-2.47,4.36-4.09s-.85-8.56-2.81-19.45l-3.33-18.47c-2.55-14.2-4-18.79-4.19-19.42A1.45,1.45,0,0,0,470.72,90c-1.05-.25-2.94-.24-5.37-.47-.12-.09-.12-.09-.18-.41l-.25-2.49c-.07-.43-.09-.53.39-.61l3.38-.62c3-.54,6.71-1,12.63-1.94l9.38-1.69c5.9-1.07,12.89-2.87,17.7-3.85a4,4,0,0,1,2.42.12c1,.48,1,.48.94,2.48a97.61,97.61,0,0,0,1.6,13.82c-2.52.45-3,.2-3.18-.42-2.73-7.45-4.1-11.17-11.65-9.81l-6.69,1.2c-5.7,1-8.86,1.82-9.86,2.33-1.18.66-1.19,1.76-.74,4.21,1.34,7.48,2.78,14.93,4.23,22.39.17,1,.89,1.6,1.56,1.48Z"/><path class="cls-1" d="M534.55,143.85c3-1.32,4.13-2.13,4.3-5.07a125.85,125.85,0,0,0,.07-15c-.17-4.23-.54-8.12-.72-10.07,0-1.08-.45-1.5-5-2.5-.42-.53-.61-.3-.29-2,0-.33.28-.56.86-.8,4.12-2.46,8.33-5.24,8.81-5.69a1.83,1.83,0,0,1,1.06-.36c.5,0,1,.28,1,.71.18,1.84.36,3.89.44,5.74,0,.54.14,1,.53,1a76.53,76.53,0,0,1,8.44-5.23,12.2,12.2,0,0,1,5.43-1.75,9.31,9.31,0,0,1,6.77,2.11c2.64,2.06,4.18,5.9,4.77,10.55.29,2.27.4,4.87.59,9.53.33,7.92.63,12.57.72,15.06,0,1,.15,1.09.44,1.07.89,0,3.72-.48,5.19-.65.29,0,.51.42.54,1.06a17.16,17.16,0,0,1-.29,2.62c-.18.55-.37.56-.76.58-8.74.36-11.66.92-15.4,1.07-.59,0-1.07,0-1.19-.38l-.58-2.15c2.8-1.2,3.84-2.11,4.11-5.17.36-3.27.28-7.28,0-15-.25-6-.48-9-2.85-11.61a8.06,8.06,0,0,0-6.68-2.43c-2.36.09-6,1.77-8.13,3.26a3.15,3.15,0,0,0-1,2.65c0,3.8.6,19.3.85,25.16.06,1.4.27,1.62,5.4,2.27.6.08.7.3.62.74l-.49,2.41-8.34.34c-3.92.16-7,.84-9,.92-.19,0-.3-.21-.32-.64Z"/><path class="cls-1" d="M606,102a17.12,17.12,0,0,1,7.18,2.81,2.35,2.35,0,0,0,1.64.55c1.66.12,7.44-.76,9.5-.61a2.74,2.74,0,0,1,1.86,1.55c.07.34.17,3,.14,3.39-.05.64-.59,1.26-1.77,1.28s-4-.19-8.33-.61a21.06,21.06,0,0,1,2,9.61c-.56,7.57-6,13.92-13.83,16.72a54.8,54.8,0,0,0-8.34,3.52,2,2,0,0,0-1,1.34c-.14,2,2.15,3.09,4.79,3.29,1.17.09,7.37.32,8.24.38,4.12.31,7.8,1.12,10.94,4.07,1.38,1.3,2.45,4.09,2.19,7.77-.26,3.47-1.27,5.25-4.18,8.62-5.59,6.34-10.23,7.84-12.76,8.75a33.76,33.76,0,0,1-9.72.92c-10.68-.79-14.48-6.72-14.17-11.05.28-3.68,1.87-6.61,4.35-8.17,2.59-1.76,4.66-3.14,7.76-5.08-4.07-2.37-6.31-3.95-6.07-7.19a3.18,3.18,0,0,1,.75-2.23c1.05-.9,5.64-3.07,9.82-4.94a17.51,17.51,0,0,1-7.62-5c-2.54-2.9-3.78-7.45-3.47-11.67a18.58,18.58,0,0,1,8.64-14.38c3.4-2.15,7.27-3.93,11.39-3.63Zm-6.94,67.92c5.68.41,9.71-.82,12.54-3.22,2.1-1.7,3.73-3.75,3.92-6.35a5.39,5.39,0,0,0-1.71-4.91c-2-1.89-4.83-2.75-8.25-3a53.36,53.36,0,0,0-10.07.24c-1,.15-2.22.82-3.92,2.33a10.31,10.31,0,0,0-4,6.56c-.14,1.94,1.61,7.62,11.41,8.34Zm12.27-46.65c.26-3.46-.19-8.06-1.64-11.1a10,10,0,0,0-8.33-5.94,7,7,0,0,0-5.18,2c-1.87,1.38-2.89,4.47-3.11,7.5-.31,4.22,1,9.75,3.52,12.54,3,3.38,5.21,4.19,7,4.32,3.63.27,7.24-2,7.77-9.21Z"/><path class="cls-1" d="M637.51,115.5c0-.55-.55-1-5-2.54-.37-.17-.43-.4-.06-.89,1-1.82,1.12-2,1.62-2,4-.79,7.66-1.86,12.18-2.79a.89.89,0,0,1,.51,0c.19,0,.15.24.05.89-1.55,7.22-4.43,22.25-5.32,27.82s-1.17,7.4-1.27,8.7c0,1.53,0,2.21,1,2.25,3,.27,3.82.39,4.11.43s.77.78.62,1.09l-.73,2.74c-.2.63-.39.6-.88.52-2.81-.45-5.49-1.09-8.6-1.58a68.65,68.65,0,0,0-8.54-.7c-.49-.08-.66-.22-.69-.66a10.91,10.91,0,0,1,.19-2.49c.07-.43.28-.51.58-.46,3.55.12,4.38-.08,5.44-3A117.32,117.32,0,0,0,636,126.91Zm10.86-32.11c2.53.41,3.8,3,3.39,5.6-.57,3.64-3.24,5.41-5.76,5-2.33-.37-4-2.72-3.49-5.6.59-3.76,3.63-5.36,5.77-5Z"/><path class="cls-1" d="M652.22,150c3.25-.4,4.58-.85,5.59-3.61a126.62,126.62,0,0,0,4.35-14.35c1-4.1,1.82-7.93,2.2-9.85.26-1,0-1.57-4.1-3.84-.24-.62-.49-.46.32-2,.08-.31.42-.45,1-.51,4.65-1.17,9.48-2.63,10.06-2.93a1.81,1.81,0,0,1,1.13,0c.47.12.87.55.77,1-.37,1.81-.78,3.83-1.23,5.62-.13.52-.15,1,.24,1.07a77.94,77.94,0,0,1,9.58-2.61,12.49,12.49,0,0,1,5.7-.12,9.39,9.39,0,0,1,5.9,4c1.94,2.73,2.3,6.85,1.54,11.48-.37,2.25-1,4.78-2.16,9.3-1.95,7.67-3,12.22-3.62,14.64-.24,1-.17,1.07.12,1.15.85.22,3.7.6,5.15.86.29.07.37.54.21,1.17a18.35,18.35,0,0,1-1,2.43c-.33.48-.52.43-.9.33-8.48-2.15-11.44-2.46-15.06-3.37-.57-.15-1-.27-1-.72l.06-2.22c3-.35,4.29-.92,5.41-3.77,1.28-3,2.36-6.9,4.26-14.37,1.47-5.78,2.12-8.75.6-11.93a8.12,8.12,0,0,0-5.72-4.26c-2.28-.58-6.27,0-8.71.81a3.14,3.14,0,0,0-1.69,2.26c-1.13,3.63-4.94,18.67-6.38,24.35-.35,1.36-.22,1.62,4.52,3.72.55.25.59.48.39.88l-1.16,2.17-8.1-2.06c-3.81-1-7-1.21-8.89-1.7-.19,0-.23-.27-.12-.7Z"/><path class="cls-1" d="M732.49,131.32a12.05,12.05,0,0,1,6.3,6.49,17.9,17.9,0,0,1,1.21,8.07c.9.1,2.84.24,3,.76.2.3.09.61-.15,1-.62.81-1.94,2.41-2.84,2.3-6.86-.68-19.69-2.53-24.15-2.66-.5-.07-.87.37-1.32,1.59-3.44,10.18-.1,16.16,6,18.4,4.25,1.57,8.55,1,12.81-.94.62-.24,1.72.17,1.52.44-1,2.41-1.44,3.05-2.22,3.46a33.5,33.5,0,0,1-13.91,2.5,11,11,0,0,1-3.6-.75,16.48,16.48,0,0,1-9.6-10,21.56,21.56,0,0,1,.59-14.35A26.56,26.56,0,0,1,723,131.51c3-1,6.83-1.18,9.4-.22Zm-.06,12.93c1.05-2.85-.73-8.82-4.59-10.26a4.26,4.26,0,0,0-2.68.17c-3.43,1.06-6.87,5.57-8.26,9.91,4.68.34,9.22,1.09,13.78,1.5.72,0,1.3-.1,1.71-1.22Z"/><path class="cls-1" d="M772.22,148.38a12,12,0,0,1,5.69,7,17.93,17.93,0,0,1,.48,8.15c.88.19,2.8.5,2.89,1,.17.32,0,.61-.25,1-.68.75-2.14,2.22-3,2-6.78-1.3-19.38-4.29-23.81-4.83-.49-.11-.9.3-1.46,1.47-4.34,9.83-1.55,16.08,4.31,18.86,4.08,1.94,8.42,1.73,12.84.22.63-.18,1.69.33,1.47.58-1.22,2.31-1.72,2.91-2.53,3.24a33.26,33.26,0,0,1-14.07,1.24,11.21,11.21,0,0,1-3.52-1.07,16.45,16.45,0,0,1-8.66-10.85,21.62,21.62,0,0,1,1.88-14.24,26.57,26.57,0,0,1,18.3-14.48,15.8,15.8,0,0,1,9.4.61ZM771,161.25c1.31-2.74.09-8.85-3.65-10.62a4.15,4.15,0,0,0-2.68-.08c-3.51.74-7.34,4.92-9.12,9.12,4.64.77,9.1,1.92,13.6,2.75a1.51,1.51,0,0,0,1.81-1.07Z"/><path class="cls-1" d="M775,194.51c2.4.39,2.92.45,3.81-.67s2.29-3.56,7-11.72l4.91-8.44c1.31-2.25,1.47-2.91-1.25-5.87a2.41,2.41,0,0,1,.27-2.61c4.59-.47,9.27-.51,13-.94a3.47,3.47,0,0,1,1.23.22c.35.19.39,1.1-.28,1.84-1.5,2.39-3,4.4-4.56,7.26,2.24,0,10.1-1.53,11.7-1.73a5.23,5.23,0,0,1,3.22.12c2.21,1.28,3.31,5.06,2.11,7.12-.88,1.51-4.58,3-5.78,3.3a3.15,3.15,0,0,1-1.88-.1,1.39,1.39,0,0,1-.72-1.29c-.08-1.43-.62-3.25-2-4-1.87-1.09-5.14-.73-7.54-.12-.92.22-1.8,1.34-4.36,5.75l-6.82,11.72c-1.37,2.34-2,3.62-2,4.23s.15,1.09,1.14,1.55l4.69,2.47a.85.85,0,0,1,.19,1.24l-2.2,2.62q-5.6-3.27-11.21-6.52c-2.2-1.29-4.44-2.33-5-2.68-.35-.2-.35-.58.23-1Z"/><path class="cls-1" d="M824.72,188.34c.22-.5-.09-1.1-3.44-4.39-.27-.31-.23-.55.32-.83,1.66-1.24,1.86-1.37,2.33-1.18,4,1,7.73,1.52,12.23,2.57a.89.89,0,0,1,.47.19c.16.11,0,.29-.33.83-4.43,5.91-13.36,18.34-16.5,23s-4.17,6.22-4.8,7.35c-.69,1.37-.89,2,0,2.48,2.65,1.51,3.3,2,3.54,2.12s.38,1,.11,1.25l-1.81,2.17c-.44.49-.61.38-1,.11-2.36-1.59-4.53-3.3-7.14-5a67.5,67.5,0,0,0-7.46-4.21c-.41-.28-.51-.48-.35-.9a11.27,11.27,0,0,1,1.22-2.18c.24-.36.47-.34.71-.17,3.18,1.61,4,1.77,6.2-.42a117.72,117.72,0,0,0,9.57-13.05Zm23.33-24.59c2.13,1.43,2.19,4.34.74,6.51-2.06,3.06-5.22,3.55-7.34,2.13s-2.45-4.12-.82-6.56c2.12-3.15,5.55-3.33,7.35-2.13Z"/><path class="cls-1" d="M823.55,225.86c3.13,1,4.52,1.1,6.58-1a129,129,0,0,0,9.84-11.3c2.63-3.32,4.91-6.49,6-8.09.67-.85.64-1.43-2.16-5.18,0-.66-.26-.62,1.13-1.73.2-.26.56-.24,1.16-.05,4.73.84,9.73,1.49,10.39,1.46a1.76,1.76,0,0,1,1,.42.9.9,0,0,1,.3,1.2c-1.06,1.51-2.27,3.18-3.42,4.63-.34.42-.52.83-.22,1.07a77.76,77.76,0,0,1,9.8,1.55,12.39,12.39,0,0,1,5.26,2.22,9.37,9.37,0,0,1,3.75,6c.65,3.29-.7,7.2-3.29,11.1-1.26,1.9-2.88,3.95-5.78,7.6-4.92,6.2-7.75,9.92-9.3,11.88-.61.76-.6.9-.37,1.09.7.55,3.13,2.07,4.35,2.89.23.19.12.65-.29,1.16a17.93,17.93,0,0,1-1.92,1.79c-.49.31-.65.18-1-.06-6.86-5.43-9.44-6.92-12.36-9.25-.46-.36-.85-.66-.65-1.07l1-2c2.91.92,4.29.91,6.49-1.23,2.41-2.24,5-5.32,9.77-11.36,3.71-4.67,5.52-7.12,5.43-10.64a8.07,8.07,0,0,0-3.46-6.22c-1.85-1.47-5.72-2.6-8.29-2.83a3.09,3.09,0,0,0-2.46,1.37c-2.52,2.84-12.16,15-15.81,19.59-.87,1.11-.85,1.39,2.6,5.25.4.45.35.68,0,1l-2,1.51-6.54-5.19c-3.08-2.45-5.88-4-7.41-5.2-.16-.12-.1-.36.17-.69Z"/><path class="cls-1" d="M904.61,239.92a17.18,17.18,0,0,1,3.73,6.75,2.4,2.4,0,0,0,.91,1.47c1.2,1.16,6.21,4.17,7.7,5.61a2.67,2.67,0,0,1,.43,2.37,33.49,33.49,0,0,1-2,2.69c-.46.48-1.26.6-2.19-.14-.77-.74-3-2.71-6-5.78a21.35,21.35,0,0,1-4.63,8.64c-5.27,5.47-13.54,6.84-21.33,4a56.81,56.81,0,0,0-8.66-2.61,2,2,0,0,0-1.62.4c-1.35,1.41-.33,3.75,1.58,5.59.85.81,5.47,4.95,6.1,5.56,3,2.87,5.29,5.84,5.82,10.11.23,1.88-.73,4.72-3.28,7.39-2.41,2.5-4.33,3.21-8.72,3.95-8.35,1.31-12.89-.5-15.41-1.42a33.62,33.62,0,0,1-8.06-5.49c-7.72-7.43-6.85-14.43-3.84-17.55,2.56-2.66,5.65-3.9,8.55-3.51,3.13.29,5.6.56,9.22,1-1.61-4.42-2.34-7.07-.08-9.41a3.21,3.21,0,0,1,2-1.24c1.38,0,6.3,1.25,10.7,2.48a17.56,17.56,0,0,1-2.65-8.73c-.1-3.86,1.85-8.16,4.79-11.2a18.59,18.59,0,0,1,15.83-5.54c4,.52,8.11,1.62,11.08,4.48Zm-48.73,47.82c4.11,3.95,8,5.58,11.72,5.54,2.69,0,5.26-.51,7.06-2.38a5.4,5.4,0,0,0,1.83-4.88c-.36-2.74-2-5.19-4.44-7.57a53.19,53.19,0,0,0-7.9-6.25c-.85-.52-2.24-.79-4.49-.71a10.33,10.33,0,0,0-7.29,2.47c-1.36,1.42-3.64,6.9,3.45,13.71Zm39.25-28c2.41-2.5,5-6.33,5.83-9.6a10,10,0,0,0-2.62-9.89,7,7,0,0,0-5.27-1.76c-2.32-.13-5.07,1.59-7.18,3.79-2.93,3-5.49,8.11-5.31,11.9.15,4.51,1.33,6.55,2.6,7.77,2.63,2.52,6.83,3.11,11.87-2.13Z"/><path class="cls-1" d="M160.33,874.42c0,5.16.22,10.32.34,15.48l-.56.89c-7.85,2.58-14.92,4.94-26.47,4.94a54.73,54.73,0,0,1-15-1.91,35.22,35.22,0,0,1-19.18-12.45c-5-6.5-7.85-15.36-7.85-25.9,0-7.51,1.68-16.59,5.72-23.66,8.86-15,22.88-18.61,35.66-18.61a56.32,56.32,0,0,1,23.88,5.15l.57.68c-.9,6.72-1.13,8.52-1.69,15.47l-.89.34C149.57,831.36,144.52,828,136,828c-14.13,0-23.66,9.64-23.66,27.36,0,8.41,3.14,25,20.52,25a35.61,35.61,0,0,0,8.41-1.24,158.83,158.83,0,0,0-.9-23.88l.56-.68,19.06-.33.56.67c-.11,5.72-.22,11.33-.22,16.93Z"/><path class="cls-1" d="M227.61,835q-.35,15.81-.34,31.62c0,14.58.22,18.84.79,26.8l-.68.68c-7.29,0-9.75,0-17.94.33l-.78-.67.11-5.05c-4,3.14-8.64,6.73-16.6,6.73-5.61,0-11-1.79-14.69-5.94-4-4.71-4.6-9.87-4.48-22.09v-7.85c0-11.33-.12-14.47-.79-23.89L173,835l18.5-.9.78.9-.22,22.65c-.11,2.81-.11,5.72-.11,8.52,0,6.62,0,15.14,8.07,15.14,3,0,5.38-1.68,8.41-3.7.11-4.48.11-6.28.11-9.53,0-1.79,0-19.74-.78-32.41l.78-.67,18.28-.9Z"/><path class="cls-1" d="M260.12,833.94c-.11,8.64-.33,16.93-.33,25.34q0,10.94.33,21.87l.11,7.85c.23,8.86.12,15.25-4.48,21.42-6.62,8.63-17.38,10.87-21.64,11.77l-.79-.45-2.91-11.66.56-.9c9.19-1.9,10.31-7.17,10.31-16.14,0-3.25-.22-16.49-.33-20.3-.12-9.64-.56-24.11-1.46-35.77l.67-.67c9.08-1.35,10.77-1.69,19.06-3.37ZM259,823.06c-7.06.79-9.53,1.12-17.83,2.25l-.78-.56-.34-15.37.78-.78L259,806.35l.67.79V822.5Z"/><path class="cls-1" d="M323.25,868.93c0,10.54,0,13.34.79,24.33l-.56.79c-7.29-.12-9.76,0-17.83.33l-.68-.78v-4.15a23.18,23.18,0,0,1-15.58,5.94c-11,0-19.63-7.74-19.63-19.73a17.94,17.94,0,0,1,8.41-15.37c6.73-4.15,13-5.38,26.47-7.17,0-1.69-.34-3.7-1.46-4.83-1.46-1.45-3.14-2.13-7.29-2.13-7.51,0-14.8,2.92-18.73,4.49l-.89-.45.56-12.22.67-.9c6.39-1.91,12.33-3.7,22-3.7,14.35,0,18.84,4.49,21.08,8.07,2.92,4.71,2.92,9.09,2.8,19.18Zm-18.39-4c-7.62,1-16.48,2.24-16.48,9.64,0,4.71,3.36,6.84,7.4,6.84a18.19,18.19,0,0,0,9.08-2.91Z"/><path class="cls-1" d="M367.88,852.89a8.37,8.37,0,0,0-4.6-1.57c-7.62,0-7.62,7.4-7.62,12.45,0,7.74.67,20.41,1.12,29.49l-.56.79c-9-.12-10.77,0-19.07.33l-.67-.67c.22-9.31.34-18.5.34-27.7,0-15.59-.34-20.63-1-29l.67-.67c8.19-1.24,10.32-1.57,18.61-3.37l.9.9-.33,10.31c3.58-8.29,8.74-10.87,13.34-10.87.78,0,1.57.11,2.35.11l.68.79-3.14,18.27Z"/><path class="cls-1" d="M428.32,868.93c0,10.54,0,13.34.78,24.33l-.56.79c-7.29-.12-9.75,0-17.83.33l-.67-.78v-4.15a23.24,23.24,0,0,1-15.59,5.94c-11,0-19.62-7.74-19.62-19.73a17.94,17.94,0,0,1,8.41-15.37c6.73-4.15,13-5.38,26.46-7.17,0-1.69-.33-3.7-1.46-4.83-1.45-1.45-3.14-2.13-7.28-2.13-7.52,0-14.81,2.92-18.73,4.49l-.9-.45.56-12.22.68-.9c6.39-1.91,12.33-3.7,22-3.7,14.36,0,18.84,4.49,21.09,8.07,2.91,4.71,2.91,9.09,2.8,19.18Zm-18.39-4c-7.63,1-16.49,2.24-16.49,9.64,0,4.71,3.37,6.84,7.4,6.84a18.26,18.26,0,0,0,9.09-2.91Z"/><path class="cls-1" d="M473.84,881.6l-1.12,11.55-.79.78a64.47,64.47,0,0,1-11.77,1.35c-17.49,0-17.72-11.1-17.72-21.42,0-2.91.11-5.72.23-8.52l.33-17.83-7.06.22-.67-.67,1-12,.68-.56,6.05.23-.11-14,.45-.79c8-2,10-2.58,17.6-4.82l.79.67-.34,18.84h11.22l.67.68-1.12,12-.67.67-10.1-.45-.22,15.81a131,131,0,0,0,.22,13.57c.23,1.68.68,5.27,6.4,5.27a16.81,16.81,0,0,0,5.15-1Z"/><path class="cls-1" d="M549.3,847a45.52,45.52,0,0,1,8.64,4.82,22.24,22.24,0,0,1,8.41,17.83c0,9.53-4,18-13.46,22.65-6.73,3.14-15.25,3.48-18.61,3.48a55.76,55.76,0,0,1-17.61-2.81c-1.23-.33-2.47-.89-3.7-1.34l-.67-.9.78-15.81,1.12-.34c3.26,2.58,9,7.07,19.18,7.07,9.75,0,13.45-5.05,13.45-9.31,0-5.94-5.94-8.75-13.68-12l-3.7-1.68c-6.28-3-16.82-8-16.82-21.53,0-12,7.29-23.88,28.37-23.88,10.88,0,15.93,2.13,20.75,4.14l.56.79-.9,14.69-1,.45c-4.15-2.81-9.19-6.28-17.71-6.28-7.4,0-10.66,4.37-10.66,7.85,0,5,4.94,7.06,14.36,11Z"/><path class="cls-1" d="M627.57,877.79l-.79,12.67-.67.89c-5.94,2.36-10,4-19.29,4-8.07,0-23.32-1.34-29.82-16.48-1.8-3.93-2.7-9.42-2.7-14.69,0-19.4,11.67-31,29.27-31a28.5,28.5,0,0,1,8,1c3.82.89,12.45,3.59,16.38,16.82,1.57,5.6,1.68,11.21,1.79,16.71l-.67.78-36.22.67c.45,2.25.78,4.49,2.46,6.84,2.7,4,7.29,6.17,14,6.17,8.19,0,13.23-2.58,17.49-4.82Zm-16-20.86c0-2.58-.11-5.27-1.68-7.74a8.62,8.62,0,0,0-11.66-2.69c-4.26,2.69-5.05,7.4-5.38,10.88Z"/><path class="cls-1" d="M684.75,878.46l-.44,13.46-.68.67c-4.71,1.34-8.52,2.46-14.46,2.46-25.23,0-32-17.49-32-30.38,0-11.44,5.16-31.4,31.51-31.4,6.5,0,10.76,1.34,15.7,2.91l.56.68c-.9,5.94-1,7.51-1.46,13.45l-1.12.34c-3.36-2.24-6.06-4-11-4-10.88,0-14.46,9.42-14.46,17.61,0,6.73,2.57,17.27,15.25,17.27,5.72,0,8.63-1.8,11.66-3.59Z"/><path class="cls-1" d="M726,881.6l-1.12,11.55-.79.78a64.47,64.47,0,0,1-11.77,1.35c-17.5,0-17.72-11.1-17.72-21.42,0-2.91.11-5.72.22-8.52l.34-17.83-7.07.22-.67-.67,1-12,.67-.56,6.06.23-.11-14,.45-.79c8-2,10-2.58,17.6-4.82l.79.67-.34,18.84h11.21l.68.68-1.13,12-.67.67-10.09-.45-.22,15.81a125.64,125.64,0,0,0,.22,13.57c.22,1.68.67,5.27,6.39,5.27a16.87,16.87,0,0,0,5.16-1Z"/><path class="cls-1" d="M752.93,894.05c-9.09-.12-11.33,0-19.4.33l-.68-.78c.34-9.2.68-16,.68-28.26,0-15.92-.34-19.85-1.24-28.37l.68-.67,19.28-3.37.79.9c-.11,9.53-.34,19.17-.34,28.71,0,15.47.45,22.09,1,30.72ZM751.36,823c-8,1-10.1,1.23-17.72,2.58l-.79-.67c.12-2.13.12-4.38.12-6.51,0-2.69-.12-5-.34-9.08l.67-.78,18.28-2.25.67.68-.33,15.25Z"/><path class="cls-1" d="M793.07,895.39c-16,0-21.53-6-24.45-10.43-4.15-6.05-5.27-13.34-5.27-20.52,0-20.63,11-31.06,30.5-31.06,2.92,0,8.75.22,13.68,2.13,15.7,6.17,15.7,24.33,15.7,28.71C823.23,881,816.84,895.39,793.07,895.39Zm7.51-47a9.42,9.42,0,0,0-7.17-3.48,9.29,9.29,0,0,0-8.19,5.05C783,853.9,783,861.08,783,864.33c0,10.88,2.13,14.69,4,16.6a9.1,9.1,0,0,0,6.28,2.57c9.31,0,10.54-10.2,10.54-19.39C803.83,858.05,803.27,851.66,800.58,848.41Z"/><path class="cls-1" d="M888,893.93c-9,0-10.87.12-18.28.34l-.67-.67c0-3.81.11-7.74.11-11.55,0-4.26-.11-19.63-.33-23.33-.34-4-.9-10.65-7.07-10.65-3.59,0-6.28,1.91-8.63,3.48.11,20.07.22,24.44.9,41.71l-.68.67c-9,0-10.65,0-18.72.34l-.68-.67c.11-7.18.23-14.36.23-21.53a313.58,313.58,0,0,0-1.57-35.1l.67-.79c8.41-1.12,10.32-1.45,18.95-3.25l1.12.79-.22,6.16c5.16-3,11.1-6.61,17.94-6.61,4,0,10.43.9,13.9,6.73,2.81,4.59,2.92,9.75,3,20.52v8.74c.23,11,.23,14.13.79,24Z"/></svg>